<svg xmlns="http://www.w3.org/2000/svg" viewBox="0 0 100 100" width="100" height="100">
  <defs>
    <linearGradient id="shieldGradient" x1="0%" y1="0%" x2="100%" y2="100%">
      <stop offset="0%" style="stop-color:#2563eb;stop-opacity:1" />
      <stop offset="100%" style="stop-color:#1e40af;stop-opacity:1" />
    </linearGradient>
  </defs>

  <!-- Shield background -->
  <path d="M 50 8 L 80 22 L 80 50 Q 80 75 50 88 Q 20 75 20 50 L 20 22 Z"
        fill="url(#shieldGradient)"
        stroke="#0f172a"
        stroke-width="1"/>

  <!-- Highlight on shield -->
  <path d="M 50 10 L 78 23 L 78 50 Q 78 73 50 85 Q 75 73 75 50 L 75 25 Z"
        fill="white"
        opacity="0.15"/>

  <!-- Lock body -->
  <rect x="38" y="48" width="24" height="24" rx="3"
        fill="white" stroke="#0f172a" stroke-width="1.5"/>

  <!-- Lock shackle -->
  <path d="M 42 48 Q 42 35 50 35 Q 58 35 58 48"
        fill="none" stroke="white" stroke-width="3" stroke-linecap="round"/>

  <!-- Lock keyhole -->
  <circle cx="50" cy="58" r="2.5" fill="#0f172a"/>
  <rect x="49" y="61" width="2" height="5" fill="#0f172a"/>

  <!-- Accent dot on shackle for depth -->
  <circle cx="50" cy="40" r="1.5" fill="white" opacity="0.7"/>
</svg>
